# xmcd
#
# Track frame offsets: 
#        150
#        9291
#        36238
#        63217
#        102830
#        117794
#        142459
#        169418
#        194768
#        229414
#        264095
#        279153
#        296624
#        316510
#        332544
#
# Disc length: 4751 seconds
#
# Revision: 0
# Processed by: cddbd v1.5.2PL0 Copyright (c) Steve Scherf et al.
# Submitted via: ExactAudioCopyFreeDBPlugin 1.0
#
DISCID=d4128d0f
DTITLE=Various Artist - Various - An Anthology of Turkish Experimental Music 
DTITLE=1967 - 2014 - CD2
DYEAR=2016
DGENRE=Electronic
TTITLE0=Utku Tavil - SUTT (2012)
TTITLE1=Asaf Zeki Yüksel - Democracy Lessons (2013)
TTITLE2=Osman Kaytazoglu - The Monopoly of Victim Status (2012)
TTITLE3=SIFIR (Z.Aracagök) - I want to be  a Suicide Bomber (2011)
TTITLE4=Cem Güney - Procession A.D. (2012)
TTITLE5=Volkan Ergen - Sublimation F. (2012)
TTITLE6=Mete Sezgin - Subconscious Memories (1994)
TTITLE7=Mors - PerfYAy (2008)
TTITLE8=Tuna Pase - Nefes (2007)
TTITLE9=D2GG - 3 Cakil Tas (2012)
TTITLE10=2/5BZ - Anadolog (1997)
TTITLE11=Cevdet Erek - Strob (2005)
TTITLE12=Reverie Falls On All - Eta Carinae
TTITLE13=Burcin Elmas - So Far (2003)
TTITLE14=Meczup - Sworn Mother (2012)
EXTD=
EXTT0=
EXTT1=
EXTT2=
EXTT3=
EXTT4=
EXTT5=
EXTT6=
EXTT7=
EXTT8=
EXTT9=
EXTT10=
EXTT11=
EXTT12=
EXTT13=
EXTT14=
PLAYORDER=
